<svg xmlns="http://www.w3.org/2000/svg" width="43" height="34" fill="none" viewBox="0 0 43 34">
    <path fill="#E84C3D" d="M17.001 22.313h-.066c0-1.063.132-.532-5.645-12.02-1.129-2.324-4.516-2.324-5.644 0C-.198 21.848 0 21.316 0 22.313c0 2.988 3.785 5.312 8.5 5.312 4.648 0 8.5-2.324 8.5-5.313zm-8.5-10.625l4.781 9.562H3.72L8.5 11.687zm33.934 10.624c0-1.062.132-.53-5.645-12.019-1.129-2.324-4.516-2.324-5.645 0-5.843 11.555-5.644 11.023-5.644 12.02 0 2.988 3.785 5.312 8.5 5.312 4.648 0 8.5-2.324 8.5-5.313h-.066zM29.22 21.25L34 11.687l4.781 9.563H29.22zm5.843 8.5H23.377V10.227c1.527-.73 2.723-2.125 3.055-3.852h8.632c.532 0 1.063-.465 1.063-1.063V3.188c0-.53-.531-1.062-1.063-1.062h-9.628A5.216 5.216 0 0 0 21.25 0c-1.793 0-3.32.863-4.25 2.125H7.438c-.597 0-1.062.531-1.062 1.063v2.124c0 .598.465 1.063 1.062 1.063h8.567c.332 1.727 1.527 3.121 3.121 3.852V29.75H7.438c-.597 0-1.062.531-1.062 1.063v2.125c0 .597.465 1.062 1.062 1.062h27.625c.532 0 1.063-.465 1.063-1.063v-2.124c0-.532-.531-1.063-1.063-1.063z"/>
</svg>
