<svg xmlns="http://www.w3.org/2000/svg" width="30" height="34" fill="none" viewBox="0 0 30 34">
    <path fill="#E84C3D" d="M26.563 0H3.188C1.46 0 0 1.527 0 3.188v27.625C0 32.538 1.46 34 3.188 34h23.375c1.66 0 3.187-1.46 3.187-3.188V3.188C29.75 1.528 28.223 0 26.562 0zM8.5 28.953c0 .399-.465.797-.863.797h-2.59c-.399 0-.797-.398-.797-.797v-2.59c0-.398.398-.863.797-.863h2.59c.398 0 .863.465.863.863v2.59zm0-8.5c0 .399-.465.797-.863.797h-2.59c-.399 0-.797-.398-.797-.797v-2.59c0-.398.398-.863.797-.863h2.59c.398 0 .863.465.863.863v2.59zm8.5 8.5c0 .399-.465.797-.863.797h-2.59c-.399 0-.797-.398-.797-.797v-2.59c0-.398.398-.863.797-.863h2.59c.398 0 .863.465.863.863v2.59zm0-8.5c0 .399-.465.797-.863.797h-2.59c-.399 0-.797-.398-.797-.797v-2.59c0-.398.398-.863.797-.863h2.59c.398 0 .863.465.863.863v2.59zm8.5 8.5c0 .399-.465.797-.863.797h-2.59c-.399 0-.797-.398-.797-.797v-11.09c0-.398.398-.863.797-.863h2.59c.398 0 .863.465.863.863v11.09zm0-17c0 .399-.465.797-.863.797H5.047c-.399 0-.797-.398-.797-.797v-6.84c0-.398.398-.863.797-.863h19.59c.398 0 .863.465.863.863v6.84z"/>
</svg>
