<svg xmlns="http://www.w3.org/2000/svg" width="43" height="26" fill="none" viewBox="0 0 43 26">
    <path fill="#E84C3D" d="M29.16 0H23.38c-.537 0-1.008.202-1.41.605l-6.652 6.047c-1.075 1.075-1.075 2.754-.135 3.762.874.94 2.62 1.21 3.763.202h.067l5.308-4.905c.47-.403 1.142-.403 1.545.067a1 1 0 0 1-.067 1.478L24.053 8.87l9.81 7.928c.134.201.335.336.47.537V4.3L30.705.672C30.302.269 29.765 0 29.159 0zm7.39 4.367v15.05c0 1.142.94 2.15 2.15 2.15H43v-17.2h-6.45zm3.225 15.05c-.605 0-1.075-.537-1.075-1.075 0-.604.47-1.075 1.075-1.075.538 0 1.075.47 1.075 1.075 0 .538-.538 1.075-1.075 1.075zM0 21.5h4.3c1.142 0 2.15-.94 2.15-2.15V4.367H0V21.5zm3.225-4.233c.538 0 1.075.47 1.075 1.075 0 .538-.537 1.075-1.075 1.075-.605 0-1.075-.537-1.075-1.075 0-.604.47-1.075 1.075-1.075zm29.227 1.21l-10.011-8.13-2.016 1.814c-2.016 1.881-5.04 1.68-6.853-.269-1.747-1.948-1.613-5.039.336-6.853L19.418 0h-5.645c-.604 0-1.142.269-1.545.672L8.6 4.3v15.05h1.21l6.046 5.51a4.273 4.273 0 0 0 6.047-.605h.067l1.143 1.008c1.075.873 2.687.739 3.56-.336l2.083-2.62.403.335c.874.74 2.218.605 3.024-.336l.605-.806c.739-.94.604-2.284-.336-3.023z"/>
</svg>
