<svg xmlns="http://www.w3.org/2000/svg" width="43" height="26" fill="none" viewBox="0 0 43 26">
    <path fill="#E84C3D" d="M40.85 0H2.15C.94 0 0 1.008 0 2.15v21.5c0 1.21.94 2.15 2.15 2.15h38.7c1.142 0 2.15-.94 2.15-2.15V2.15C43 1.008 41.992 0 40.85 0zM3.225 22.575v-4.3c2.352 0 4.3 1.948 4.3 4.3h-4.3zm0-15.05v-4.3h4.3c0 2.419-1.948 4.3-4.3 4.3zM21.5 19.35c-3.023 0-5.375-2.822-5.375-6.45 0-3.56 2.352-6.45 5.375-6.45 2.956 0 5.375 2.89 5.375 6.45 0 3.628-2.419 6.45-5.375 6.45zm18.275 3.225h-4.3c0-2.352 1.881-4.3 4.3-4.3v4.3zm0-15.05c-2.419 0-4.3-1.881-4.3-4.3h4.3v4.3z"/>
</svg>
